<?xml version="1.0" encoding="utf-8"?>
<!-- Generator: Adobe Illustrator 24.0.2, SVG Export Plug-In . SVG Version: 6.00 Build 0)  -->
<svg version="1.2" baseProfile="tiny" id="Layer_1" xmlns="http://www.w3.org/2000/svg" xmlns:xlink="http://www.w3.org/1999/xlink"
	 x="0px" y="0px" viewBox="0 0 500 500" xml:space="preserve">
<linearGradient id="SVGID_1_" gradientUnits="userSpaceOnUse" x1="15" y1="250" x2="485" y2="250">
	<stop  offset="0" style="stop-color:#4354F6"/>
	<stop  offset="1" style="stop-color:#8144F9"/>
</linearGradient>
<circle fill="url(#SVGID_1_)" cx="250" cy="250" r="235"/>
<g id="ByeQNg.tif">
	<g>
		<path fill="#FEFDFF" d="M249.8,414.6c-0.3-0.3-0.6-0.7-1-1c-33.1-33.1-66.2-66.2-99.3-99.3c-0.2-0.2-0.4-0.3-0.5-0.5
			c-0.1-0.2-0.1-0.5,0-0.7c0.1-0.2,0.3-0.3,0.4-0.5c11.9-11.9,23.7-23.7,35.6-35.6c0.9-0.9,0.9-0.9,1.8,0
			c20.7,20.7,41.5,41.5,62.2,62.2c0.9,0.9,0.9,0.9,1.8,0c20.7-20.7,41.5-41.5,62.2-62.2c0.9-0.9,0.9-0.9,1.8,0
			c11.9,11.9,23.8,23.8,35.6,35.6c0.8,0.8,0.8,0.8,0,1.6c-33.1,33.1-66.3,66.3-99.4,99.4c-0.3,0.3-0.6,0.7-1,1
			C250.1,414.6,249.9,414.6,249.8,414.6z"/>
		<path fill="#FEFDFF" d="M85.3,249.8c0.3-0.3,0.6-0.5,0.9-0.8c11.8-11.8,23.6-23.6,35.5-35.5c0.9-0.9,0.9-0.9,1.7,0
			c11.9,11.9,23.8,23.8,35.6,35.6c0.8,0.8,0.8,0.8,0,1.7c-11.9,11.9-23.8,23.8-35.7,35.7c-0.8,0.8-0.8,0.8-1.6,0
			c-11.8-11.8-23.6-23.6-35.5-35.5c-0.3-0.3-0.6-0.6-1-0.9C85.3,250,85.3,249.9,85.3,249.8z"/>
		<path fill="#FEFDFF" d="M314,223.7c-0.3-0.2-0.5-0.4-0.7-0.6c-3.5-3.5-7-7-10.5-10.5c-17.3-17.3-34.6-34.6-51.9-51.9
			c-0.9-0.9-0.9-0.9-1.8,0c-20.7,20.7-41.4,41.4-62.1,62.1c-1,1-1,1-2,0c-11.8-11.8-23.6-23.6-35.4-35.4c-0.9-0.9-0.9-0.9,0-1.8
			c33.2-33.2,66.4-66.4,99.6-99.6c0.8-0.8,0.8-0.8,1.7,0c33.2,33.2,66.5,66.5,99.7,99.7c0.7,0.7,0.7,0.7,0,1.5
			c-11.9,11.9-23.8,23.8-35.8,35.8C314.5,223.2,314.3,223.4,314,223.7z"/>
		<path fill="#FEFDFF" d="M287.7,250c-0.2,0.3-0.4,0.5-0.6,0.7c-2.6,2.6-5.2,5.2-7.8,7.8c-9.5,9.5-19,19-28.5,28.5
			c-0.8,0.8-0.8,0.8-1.7,0c-12.1-12.1-24.1-24.1-36.2-36.2c-0.8-0.8-0.8-0.8,0-1.7c12.1-12.1,24.1-24.1,36.2-36.2
			c0.8-0.8,0.8-0.8,1.6,0c12.1,12.1,24.1,24.1,36.2,36.2C287.3,249.4,287.5,249.7,287.7,250z"/>
		<path fill="#FEFDFF" d="M414.7,250c-0.3,0.3-0.4,0.5-0.6,0.7c-3.5,3.5-7,7-10.5,10.5c-8.4,8.4-16.8,16.8-25.3,25.3
			c-0.8,0.8-0.8,0.8-1.7,0c-11.9-11.9-23.8-23.8-35.7-35.7c-0.8-0.8-0.8-0.8,0-1.6c11.9-11.9,23.8-23.8,35.7-35.7
			c0.8-0.8,0.8-0.8,1.5,0c11.9,11.9,23.9,23.9,35.8,35.8C414.2,249.4,414.4,249.7,414.7,250z"/>
	</g>
</g>
</svg>
