<?xml version="1.0" encoding="utf-8"?>
<!-- Generator: Adobe Illustrator 24.0.2, SVG Export Plug-In . SVG Version: 6.00 Build 0)  -->
<svg version="1.2" baseProfile="tiny" id="Layer_1" xmlns="http://www.w3.org/2000/svg" xmlns:xlink="http://www.w3.org/1999/xlink"
	 x="0px" y="0px" viewBox="0 0 500 500" xml:space="preserve">
<g id="H9tlC5.tif">
	<g>
		<linearGradient id="SVGID_1_" gradientUnits="userSpaceOnUse" x1="362.6373" y1="484.6048" x2="147.0452" y2="111.1884">
			<stop  offset="0" style="stop-color:#4354F6"/>
			<stop  offset="1" style="stop-color:#8144F9"/>
		</linearGradient>
		<path fill="url(#SVGID_1_)" d="M479.7,344.5c-2.3,2.7-4.7,5.2-6.9,8c-0.8,1-1.1,2.6-1.1,3.9c-0.1,14.5,0,28.9,0,43.4
			c0,20.4-16,37.6-37.5,37.5c-57.2-0.2-114.4,0-171.6-0.2c-3.7,0-5.9,1.1-8.2,4.1C214.2,494.1,136,503.1,84.6,461
			C29.2,415.6,25,333.1,75.8,282.8c5.6-5.6,12.1-10.4,18.7-14.9c3.2-2.2,4.1-4.4,4.1-8.1c-0.1-28.9,0.3-57.9-0.3-86.8
			c-0.2-9.5,9.7-21.2,21.4-21.1c15.3,0.1,30.6-0.1,45.9,0.1c3.6,0.1,5.8-1.4,8-3.9c10.1-11.5,20.3-22.9,30.4-34.4
			c14.7-16.6,29.3-33.3,44-50c6.4-7.2,12.9-14.3,19.4-21.5c2.5-2.7,5.4-3.3,8.2-1c3.1,2.6,3.4,5.9,0.6,9.1
			c-5.9,6.7-11.9,13.2-17.8,19.9c-12.7,14.3-25.3,28.6-37.9,42.9c-5.5,6.2-10.9,12.3-16.4,18.4c-12.5,13.9-25,27.8-37.5,41.7
			c-3.4,3.8-6.7,7.7-10.2,11.7c7.9,3.2,11.6-2,15.5-6.3c11-12.2,21.9-24.6,32.8-36.9c8.6-9.8,17.2-19.7,25.8-29.5
			c6.2-7,12.6-13.9,18.8-21c12.8-14.5,25.6-29,38.5-43.4c5.6-6.3,11.5-12.5,17.2-18.8c1.7,0,3.3,0,5,0c12,10.8,24,21.7,36,32.5
			c9.5,8.6,18.6,17.6,28.5,25.7c8.5,7,16.3,14.9,24.5,22.3c9.3,8.4,18.6,16.7,28,25c4.2,3.7,4.8,6.9,1.6,11.5
			c-1.2,1.8-2.7,3.3-4.6,5.7c2.5,0,3.9,0,5.2,0c13.2,0.1,22.4,7.6,24.4,20.5c0.8,5.2,0.5,10.6,1.2,15.8c0.3,2,1.3,4.6,2.8,5.8
			c9.8,7.4,13.8,17.5,14,29.3c0.2,15.6,0,31.3,0.1,46.9c0,1.5,0.3,3.3,1.1,4.4c2.1,2.8,4.5,5.4,6.9,8
			C479.7,303.2,479.7,323.9,479.7,344.5z M459.7,272.6c0-18.2,0.3-35.6-0.1-53.1c-0.2-10.1-12.2-23-22.7-21.9
			c-5.3,0.6-10.7,0.1-16,0.1c-94.3,0-188.6,0-282.9,0c-9.4,0-19.1,1.6-28.3-3.2c0,21.7,0,42.8,0,64c53.1-19.7,101.2-12.5,139.4,30.2
			c36.2,40.5,39,87.3,16.6,136.4c0.9,0.1,1.6,0.2,2.4,0.2c56.4,0,112.7,0.1,169.1-0.1c3.4,0,7.1-1.3,10.1-3.1
			c8.3-5,12.6-12.4,12.5-22.4c-0.2-14.9,0-29.8,0-45.3c-2.2,0-4,0-5.8,0c-25.3,0-50.6,0-75.8,0c-12.1,0-22.8-7.5-26.1-19.1
			c-3.7-13.2-2.6-26.8-1-40.2c1.5-12.2,13.7-22.5,25.9-22.5c25.6,0,51.2,0,76.8,0C455.5,272.6,457.3,272.6,459.7,272.6z
			 M155.1,475.1c35.1-0.6,61.3-11.7,82.4-33.7C257,421,267,396,266.9,367.8c-0.1-29-10.7-54.5-31.4-75.3
			c-20.8-20.9-46.4-32-75.7-31.6c-60,0.9-106.7,46.7-106.8,106.9C52.9,427.7,99.3,473.3,155.1,475.1z M320.9,160.4
			c0.6-9.1,0.6-9,8.9-8.9c3.6,0,7.3-0.4,10.9-0.8c8.9-1,16.2-5.4,23.3-10.6c1.6-1.1,4.7-1.8,6.2-0.9c1.7,1,3.3,3.8,3.4,5.9
			c0.1,3.7-0.7,7.6-1.7,11.2c-2.9,11.3-9.3,20.6-18.1,29.5c6.9,0,12.8-0.2,18.7,0.1c4.1,0.1,7.6,0,10.1-4.1c1.5-2.5,3.7-4.6,5.7-6.8
			c8.8-10.2,17.7-20.3,26.5-30.5c1.7-2,1.6-3.3-0.8-5.1c-5-4-9.5-8.7-14.2-13c-4.4-4.1-8.8-8.3-13.3-12.3
			c-15.6-14-31.3-27.9-46.9-42c-9.2-8.3-18.2-16.9-27.4-25.3c-1.4-1.3-3.2-2-4.7-2.9c-42,47.3-83.7,94.2-126,141.7
			c32.7,0,63.9,0,95.7,0c-1.3-1.4-2.3-2.5-3.3-3.5c-22.2-23.1-23-57.1-1.9-81.2c2.1-2.4,4.6-5.3,7.9-3.3c2,1.2,4,4.2,4.1,6.5
			c1.2,18.1,9.2,31.9,24.8,41.4c0.9,0.6,2.1,2.1,1.9,3c-0.6,2.6-1.7,5.2-2.7,8c-17.8-8.8-28.3-22.8-33.2-42.1
			c-7.2,11.4-9.1,22.8-7.1,35c2.8,16.8,13.4,27.7,27.2,36.1c0.7,0.4,3-0.4,3.4-1.2c3.2-6.2,6.7-12.3,8.9-18.8
			c3.2-9.9,5.3-20.1,8.2-30.1c0.5-1.6,3.1-2.6,4.7-3.9c1,1.6,3.2,3.4,2.9,4.7c-2.6,11.1-5.3,22.1-8.7,33c-1.7,5.7-4.7,11.1-7.3,17
			c6.7,0,12.9-0.4,19,0.1c7.9,0.6,14.4-2.4,19.9-7.5c4.1-3.8,7.7-8.2,11-12.8c2.1-2.9,3.1-6.7,4.5-10c-0.3-0.3-0.6-0.7-0.9-1
			C347.9,161.5,334.7,163.2,320.9,160.4z M419.8,284.6c-14.1,0-28.3,0.4-42.4-0.2c-7.9-0.3-15.6,8.4-15.5,15.3
			c0.1,8.8-0.1,17.6,0.1,26.4c0.2,9.1,6.5,16.4,16.3,16.3c28.1-0.2,56.2-0.1,84.3,0c4.3,0,6.1-1.8,6.1-5.8c0-15.5,0.1-30.9,0-46.4
			c0-3.8-1.5-5.9-6-5.9C448.4,284.8,434.1,284.6,419.8,284.6z M159.8,162.9c-10.9,0-20.3,0-29.6,0c-2.2,0-4.5,0.7-6.6,0.4
			c-7.1-0.9-13.4,3.9-14,10.7c-0.5,5.8,5.1,11.6,11.7,11.8c5.5,0.2,11,0.1,16.4,0c1.2,0,2.7-0.5,3.5-1.3c2.8-2.8,5.4-5.8,7.9-8.8
			C152.3,171.9,155.5,168,159.8,162.9z M442.8,185.6c0-3.1,0-5.8,0-8.4c0-8.6-4.3-13-12.7-13.4c-1.3-0.1-2.6-0.9-3.8-0.7
			c-4.9,0.7-11,0-14.3,2.7c-6.4,5.4-11.2,12.7-17.1,19.7C411.1,185.6,426.6,185.6,442.8,185.6z"/>
		<linearGradient id="SVGID_2_" gradientUnits="userSpaceOnUse" x1="203.2897" y1="375.3114" x2="164.8221" y2="308.6835">
			<stop  offset="0" style="stop-color:#4354F6"/>
			<stop  offset="1" style="stop-color:#8144F9"/>
		</linearGradient>
		<path fill="url(#SVGID_2_)" d="M198.9,294.6c15.8-0.6,30,11.8,32.5,28c1.7,10.8-1.7,19.6-8.9,27.1c-10.4,10.8-21,21.3-31.7,31.7
			c-12.4,12.1-32.2,11.7-45-0.5c-2.7-2.6-3.6-6.2-0.8-9.2c2.7-2.8,6.2-3.6,9.6-0.7c6.3,5.5,13.5,6.9,21.4,4.3c1.9-0.6,3.8-2,5.3-3.4
			c10.5-10.4,21-20.9,31.4-31.3c7.6-7.6,7.7-19.8-0.2-27.2c-7.8-7.3-19.3-8-27.2-0.2c-8.4,8.3-16.8,16.6-25,25.1
			c-2.9,3-6.2,3.3-9.2,1.1c-3.4-2.5-3.9-6.7-1.1-9.6c9.7-10,19.5-19.9,29.9-29.1C185.8,295.3,191,294.6,198.9,294.6z"/>
		<linearGradient id="SVGID_3_" gradientUnits="userSpaceOnUse" x1="153.2755" y1="425.2344" x2="114.8424" y2="358.6664">
			<stop  offset="0" style="stop-color:#4354F6"/>
			<stop  offset="1" style="stop-color:#8144F9"/>
		</linearGradient>
		<path fill="url(#SVGID_3_)" d="M86.5,406.2c0.3-8.8,3.1-16.5,9.5-22.8c9.8-9.7,19.6-19.4,29.3-29.3c12.9-13.1,32.7-13.4,46.3-1.9
			c3.3,2.8,3.8,7.5,0.8,10.5c-2.9,2.8-6.2,2.7-9.2,0c-8.8-7.7-21.2-7.3-29.4,1.6c-8.9,9.6-18.5,18.6-27.8,27.9
			c-9.6,9.6-8.1,24.3,3.4,31.3c6.9,4.2,15.4,4.3,22.5-2.5c8.4-8,16.5-16.4,24.7-24.6c2.6-2.6,5.3-4.3,9.2-2.3c3.7,2,5.1,6.8,2.2,9.8
			c-9.6,9.9-19.1,19.9-29.3,29.2c-9.8,8.8-27.7,8.4-38.5,0.3C91.2,426.8,86.1,415.8,86.5,406.2z"/>
		<linearGradient id="SVGID_4_" gradientUnits="userSpaceOnUse" x1="327.7889" y1="133.4838" x2="313.5377" y2="108.8001">
			<stop  offset="0" style="stop-color:#4354F6"/>
			<stop  offset="1" style="stop-color:#8144F9"/>
		</linearGradient>
		<path fill="url(#SVGID_4_)" d="M319.6,105.3c2.6,6.6,6.9,10.2,14.1,10.9c-6.7,3.8-7.2,9.2-4.9,16.7c-6.4-3.3-11.8-6.7-17.7-0.8
			c0.7-6.6,1.4-12.7-5.8-16.7C312.6,115,317.7,112.7,319.6,105.3z"/>
		<linearGradient id="SVGID_5_" gradientUnits="userSpaceOnUse" x1="406.3872" y1="331.1878" x2="385.8512" y2="295.6184">
			<stop  offset="0" style="stop-color:#4354F6"/>
			<stop  offset="1" style="stop-color:#8144F9"/>
		</linearGradient>
		<path fill="url(#SVGID_5_)" d="M396.3,293.6c12.1,0,20.5,8.2,20.5,20c0,11.9-8.6,19.9-21.2,19.9c-12.1,0-19.7-7.8-19.7-20.2
			C375.9,300.9,383.5,293.6,396.3,293.6z M404.8,313c0-4.8-4-8.5-9.1-8.4c-4.6,0.1-8.8,4.6-8.8,9.4c0,3.7,5.2,8.4,9.3,8.5
			C400.8,322.6,404.9,318.1,404.8,313z"/>
	</g>
</g>
</svg>
