<?xml version="1.0" encoding="utf-8"?>
<!-- Generator: Adobe Illustrator 24.0.2, SVG Export Plug-In . SVG Version: 6.00 Build 0)  -->
<svg version="1.2" baseProfile="tiny" id="Layer_1" xmlns="http://www.w3.org/2000/svg" xmlns:xlink="http://www.w3.org/1999/xlink"
	 x="0px" y="0px" viewBox="0 0 500 500" xml:space="preserve">
<g id="_x34_4PTNp.tif">
	<g>
		<linearGradient id="SVGID_1_" gradientUnits="userSpaceOnUse" x1="360.463" y1="466.238" x2="122.1677" y2="53.4984">
			<stop  offset="0" style="stop-color:#4354F6"/>
			<stop  offset="1" style="stop-color:#8144F9"/>
		</linearGradient>
		<path fill="url(#SVGID_1_)" d="M372.4,38.3c4.2,0,8.4,0,12.7,0c24.4,6.6,26.5,26.2,26,47.7c6.9,0,12.3-0.4,17.7,0.1
			c16.5,1.6,27.8,13.8,27.4,29.1c-0.4,15-12.8,26.6-29.3,27.3c-4.7,0.2-9.5,0-15.2,0c1.5,3.4,1.9,5,2.8,6.4
			c12.5,20.5,25.6,40.6,37.5,61.4c12.1,21,22.6,42.9,34.8,63.9c9,15.5,9.4,29.8-0.1,45c-22.1,35.3-43.8,70.9-65.7,106.4
			c-7.4,12.1-18,18-32.5,17.9c-43-0.3-86-0.1-129.1-0.1c-66.6,0-133.3,0-199.9,0c-16.4,0-23.8-7.4-24.2-23.8
			c-0.1-3.4,0.6-6.9-0.2-10.1c-0.9-3.2-2.7-7.9-5.2-8.7c-8.4-2.9-12.1-9.9-16.9-16.1c0-86.8,0-173.6,0-260.4
			c5.4-14.2,15.8-18.5,30.7-18.5c81.3,0.5,162.6,0.2,243.8,0.2c5,0,10.1,0,15.9,0c7.1-21.1,25.4-20.2,42.2-20.6
			c1.8-10.7,2.3-20.5,5.2-29.5C353.9,46,363.5,42.1,372.4,38.3z M346.3,142.4c-5.6,0-10.5,0.2-15.5,0c-10.3-0.5-19.4-4.3-24-13.8
			c-3.2-6.6-7.7-7.8-14.1-7.8c-82.7,0.1-165.4,0-248,0.1c-14.1,0-16.3,2.3-16.3,16.1c0,77.5,0,155.1,0,232.6
			c0,14.6,2.2,16.8,16.9,16.8c105.5,0,210.9,0,316.4,0.1c11.7,0,20-4.8,26-14.6c21.5-35.2,43.2-70.3,65-105.4
			c5.5-8.8,5.8-17,0.1-25.8c-7.3-11.3-14.2-22.9-21.3-34.4c-7.4-12-14.9-24-22.5-36.2c-15.7,14.8-26.1,18.3-40.2,14.2
			C348.2,178.2,348,160.4,346.3,142.4z M466.3,275.3c-2.7,3.8-5.4,7.3-7.7,11.1c-19.1,30.8-37.8,61.7-57.2,92.3
			c-3.9,6.2-9.3,11.9-15.1,16.5c-8,6.4-18,6.1-27.8,6.1c-95.7-0.1-191.5,0-287.2,0c-4.6,0-9.4-0.3-13.9,0.5c-2.4,0.5-5.9,3-6.1,4.9
			c-1.5,15.8-1.9,23.1,16.2,23c105-0.5,210-0.3,315.1-0.1c12.2,0,20.7-4.4,27.1-14.9c21-34.6,42.4-68.8,63.5-103.3
			C481.9,297.3,480.4,288.6,466.3,275.3z M362.1,126.2c0.3,5.1,0.6,8.8,0.7,12.5c0.1,5.5-0.4,11,0.2,16.4c1,9.4,6.6,14.1,15.7,14.1
			s14.6-4.8,15.8-14.1c0.4-3.3-0.1-6.7,0-10.1c0.1-6.1,0.4-12.2,0.6-18.8c11.9,0,22,0.1,32.1,0c6.9-0.1,10.7-4.7,12.6-10.3
			c2-5.9-3.1-9.4-7.1-12.1c-2.4-1.7-6.3-1.6-9.6-1.7c-9.1-0.2-18.3-0.1-28.6-0.1c0-12,0.2-22.5-0.1-32.9c-0.1-7-3.9-11.7-10.4-14.2
			c-7.1-2.8-12.7,0.8-16.5,5.8c-2.8,3.7-4.3,9-4.7,13.7c-0.7,8.7-0.2,17.4-0.2,27.6c-11,0-20.5-0.1-30.1,0
			c-9.5,0.2-12.7,3.1-12.9,11.4c-0.3,9.2,2.9,12.5,12.9,12.7C342.3,126.4,351.9,126.2,362.1,126.2z"/>
		<linearGradient id="SVGID_2_" gradientUnits="userSpaceOnUse" x1="136.0634" y1="305.254" x2="77.4391" y2="203.7136">
			<stop  offset="0" style="stop-color:#4354F6"/>
			<stop  offset="1" style="stop-color:#8144F9"/>
		</linearGradient>
		<path fill="url(#SVGID_2_)" d="M131.6,266.8c0-13.9,0-27.7,0-41.6c0-2.9,0-5.9,0.1-8.8c0.2-5.3,2.6-9,8.3-9.1
			c5.8-0.1,8.1,3.5,8.4,8.9c0.1,1.3,0.1,2.5,0.1,3.8c0,22.7,0,45.4,0,68.1c0,5.5,0.3,11.4-6.6,13.4c-6.3,1.8-10.2-2-13.8-6.5
			c-12.3-15-24.6-29.8-37-44.7c-2.3-2.8-4.9-5.3-9.3-10c0,12.7,0,22.6,0,32.5c0,5,0.1,10.1,0,15.1c-0.2,10-2.7,14-8.7,13.8
			s-8.5-3.9-8.6-14.3c-0.2-21.9-0.1-43.7,0-65.6c0-5.5-0.2-11.5,6.1-14c6.7-2.7,11,1.5,14.9,6.3c7.7,9.5,15.5,18.9,23.3,28.3
			c6.9,8.4,13.9,16.7,20.8,25.1C130.1,267.3,130.9,267.1,131.6,266.8z"/>
		<linearGradient id="SVGID_3_" gradientUnits="userSpaceOnUse" x1="216.0537" y1="281.3534" x2="173.6248" y2="207.8643">
			<stop  offset="0" style="stop-color:#4354F6"/>
			<stop  offset="1" style="stop-color:#8144F9"/>
		</linearGradient>
		<path fill="url(#SVGID_3_)" d="M187.7,263.2c0,10.5,0.2,18.5-0.1,26.5c-0.3,8.2-3.7,12-9.8,12.1s-9.8-3.7-9.9-11.9
			c-0.3-23.6-0.3-47.2,0-70.7c0.1-9.2,3.2-11.9,12.5-12.1c13.1-0.3,26.1-0.2,39.2,0c8.7,0.1,13.5,3.3,12.7,8.7c-1,7-6.3,8-12.3,8
			c-10.1-0.1-20.1,0-31.2,0c0,7.4,0,13.8,0,21.9c7,0,13.6-0.1,20.2,0c3.4,0,7.2-0.6,9.9,0.9c2.9,1.5,6.5,5.1,6.5,7.8
			s-3.5,6.9-6.4,7.8c-4.6,1.5-9.9,1-15,1.1C199.2,263.3,194.3,263.2,187.7,263.2z"/>
		<linearGradient id="SVGID_4_" gradientUnits="userSpaceOnUse" x1="316.3848" y1="284.5426" x2="266.1458" y2="197.5262">
			<stop  offset="0" style="stop-color:#4354F6"/>
			<stop  offset="1" style="stop-color:#8144F9"/>
		</linearGradient>
		<path fill="url(#SVGID_4_)" d="M273.5,223.7c-7.2,0-13,0.2-18.7,0c-7.8-0.3-12-3.4-11.5-8.6c0.6-6.5,5.3-8,10.8-8
			c19.8,0,39.5,0,59.3,0c5.7,0,10.5,2.2,10.5,8.3c0.1,6.3-4.9,8.2-10.5,8.2c-5.8,0-11.6,0-18.4,0c-0.5,4.7-1.1,8.3-1.2,11.9
			c-0.1,16,0,31.9-0.1,47.9c0,2.9,0.1,5.9-0.2,8.8c-0.6,5.7-3.6,9.3-9.7,9.5c-6,0.2-10.1-3.2-10.3-10.1c-0.4-17.2-0.2-34.5-0.2-51.7
			C273.5,235.1,273.5,230.2,273.5,223.7z"/>
		<linearGradient id="SVGID_5_" gradientUnits="userSpaceOnUse" x1="398.0011" y1="278.8198" x2="368.7709" y2="228.1915">
			<stop  offset="0" style="stop-color:#4354F6"/>
			<stop  offset="1" style="stop-color:#8144F9"/>
		</linearGradient>
		<path fill="url(#SVGID_5_)" d="M382.8,281.9c-17-0.1-28.6-11.7-28.5-28.6c0.1-17.2,12.3-28.8,30.1-28.4
			c16,0.3,29.6,13.9,28.3,29.3C411.1,273.8,396.2,283.4,382.8,281.9z M397.3,252.9c-0.4-6.4-8.1-13.9-14.2-13.7
			c-7.3,0.2-13.9,7.8-13.3,15.6c0.5,7,7.9,13.6,14.5,12.9C390.7,267,397.6,259.2,397.3,252.9z"/>
	</g>
</g>
</svg>
