<?xml version="1.0" encoding="utf-8"?>
<!-- Generator: Adobe Illustrator 24.0.2, SVG Export Plug-In . SVG Version: 6.00 Build 0)  -->
<svg version="1.2" baseProfile="tiny" id="Layer_1" xmlns="http://www.w3.org/2000/svg" xmlns:xlink="http://www.w3.org/1999/xlink"
	 x="0px" y="0px" viewBox="0 0 500 500" xml:space="preserve">
<g id="pX1H3A.tif">
	<g>
		<g>
			<linearGradient id="SVGID_1_" gradientUnits="userSpaceOnUse" x1="368.4416" y1="441.881" x2="148.5626" y2="61.0394">
				<stop  offset="0" style="stop-color:#4354F6"/>
				<stop  offset="1" style="stop-color:#8144F9"/>
			</linearGradient>
			<path fill="url(#SVGID_1_)" d="M362,445.6c-2.8,0-5.6,0-8.5,0c-3.6-7.4-3.6-7.4-3.6-16c0-5,0-10,0-15.1c-16,0-31.4,0-47.3,0
				c0,6.8-0.3,13.2,0.1,19.6c0.2,4.5-0.9,8.2-3.7,11.6c-2.8,0-5.6,0-8.5,0c-1.2-1.6-2.4-3.1-3.9-5.1c0-8.4,0-17.2,0-26
				c-15.8,0-31.2,0-47,0c0,6.8-0.3,13.2,0.1,19.6c0.2,4.5-0.9,8.2-3.7,11.5c-2.8,0-5.6,0-8.5,0c-3.9-2.5-4.8-6.3-4.8-10.6
				c0-6.8,0-13.6,0-20.6c-15.6,0-30.5,0-46.1,0c0,7.3-0.2,14.3,0.1,21.2c0.2,4.4-1.3,7.6-4.9,9.9c-2.8,0-5.6,0-8.5,0
				c-2.8-3.4-3.9-7.1-3.7-11.5c0.3-6.5,0.1-13.1,0.1-19.5c-18.7,0-36.4,0-54.5,0c0,9.3,0,18.1,0,26.4c-1.4,1.9-2.5,3.3-3.6,4.7
				c-2.8,0-5.6,0-8.5,0c-1.2-1.6-2.4-3.1-3.9-5.1c0-8.4,0-17.2,0-26.3c-11.3,0.2-21.7-0.7-30.2-9.1c-8.4-8.5-10.2-18.8-9.6-30.2
				c-2.3-0.3-3.9-0.6-5.4-0.6c-5-0.1-10.1-0.3-15.1,0c-5.1,0.3-9-1.4-11.9-5.7c0-1.9,0-3.9,0-5.1c2.1-2.5,3.7-4.5,5.3-6.5
				c9.2,0,18,0,26.7,0c0-10.6,0-20.8,0-31.2c-9.3,0-18.1,0-26.5,0c-2.2-2-3.9-3.6-5.6-5.1c0-2.3,0-4.3,0-6.1c3-4.4,6.9-6.2,12-5.7
				c2.8,0.3,5.6,0,8.5,0c3.9,0,7.9,0,12.1,0c0-5.9,0.1-11,0-16c-0.2-4.9,0.8-10-0.8-15.2c-2-0.1-3.8-0.3-5.5-0.3
				c-5.4,0-10.9,0.1-16.3-0.1c-2.7-0.1-5.3-0.9-7.4-1.3c-4.6-8.9-1.3-14.9,7.8-15.5c2.8-0.2,5.6,0,8.5,0c4.3,0,8.7-0.1,13.6-0.1
				c0.4-10.8,0.7-20.7-0.2-31.2c-9.8,0-19,0-27.6,0c-6.4-6.8-6.1-10.7,1-16.4c8.3,0,17.3,0,26.7,0c0-10.5,0-20.5,0-30.6
				c-7.7-3-15.8-1.6-23.7-1.4c-3.6,0.1-5.6-1.1-7.2-3.7C16,173.5,16.9,170,20,166c9.1-2.7,19.3,0.3,29.7-1.8
				c-1.5-19.1,5.2-33.1,24.3-39.6c4.9,0,9.9,0,15.3,0c0.2-2.2,0.4-4,0.4-5.7c0-5.4-0.2-10.9,0.1-16.3c0.1-2.8,1-5.7,1.5-8.5
				c3.2-0.8,5.7-1.4,7.8-1.9c2.5,1.7,4.4,3.1,6.3,4.4c0.2,9.4-0.1,18.6,0.2,28.1c18.6,0,36.2,0,54.1,0c0.1-0.9,0.3-1.7,0.3-2.4
				c0-6.9,0-13.7,0-20.6c0-4.3,2.3-7.1,6.1-8.7c3.6-1.5,6.1,0.3,8.5,2.6c0.8,0.8,1.6,1.8,2.7,3c0,8.4,0,17,0,26
				c15.5,0,30.4,0,45.3,0c1.4-9.9-1.5-19.6,2.1-28.6c2.2-1.4,4-2.6,6.1-4c2.3,1,4.7,1.9,7.6,3.1c3.5,9.3-0.3,19.6,2.1,29.1
				c6.6,1.5,41.8,1.2,46.6-0.6c0-6.9-0.1-14.1,0.1-21.3c0.1-2.7,0.9-5.3,1.5-8.2c3.2-0.8,5.8-1.4,7.9-2c6.2,4.7,6.2,4.7,6.2,11.2
				c0,4.4,0,8.9,0,13.3c0,2.5,0.2,5.1,0.4,8c2.9,0,5.1,0,7.4,0c1.1-5.1,2-9.8,3.3-14.4c4.8-17.5,14.2-32.1,28.3-43.3
				c23.7-19,50.6-25.2,80-16.8c31.6,8.9,51.8,29.7,61.1,61.1c1.4,4.6,2.4,9.3,3.6,13.9c0,6.5,0,12.9,0,19.4c-0.4,1.3-1,2.6-1.2,3.9
				c-4,23.9-15.6,43.3-35.2,57.7c-4.5,3.3-9.4,6.1-14.1,9.1c3.6,5.6,2.9,9.2-3,14.3c-8.3,0-17.1,0-25.9,0c0,10.6,0,20.7,0,31.1
				c8.3,0,16.1,0,23.5,0c8.7,4.3,9.6,7.2,5.1,15.5c-9,3.4-19.1,0.2-28.5,2c0,10.5,0,20.6,0,31c8.7,0,16.9,0,24.9,0
				c7.4,5.3,7.9,7.4,3.7,15.4c-9,3.6-19.1,0.2-28.6,2c0,10.4,0,20.6,0,31.1c7.2,0,14.1-0.2,20.9,0.1c2.8,0.1,5.7,1,7.9,1.4
				c3,6.5,3,7.6,0.4,12.7c-1.8,0.9-3.6,1.8-6.2,3.1c-7.1,0-15.1,0-23.3,0c-0.1,11.4-1.9,21.4-10.1,29.9c-8.3,8.5-18.5,9.9-30,9.9
				c0,5.8-0.2,11.2,0.1,16.6C367.2,436.5,365.8,441.4,362,445.6z M356.9,212.6c-17-9.2-29.4-22.3-37.9-39c-73.7,0-147,0-220.6,0
				c0,64.1,0,127.8,0,191.8c86.3,0,172.3,0,258.5,0C356.9,314.4,356.9,263.7,356.9,212.6z M475.8,134.9c-0.8-43.9-34-76.7-75.6-77.5
				c-45.5-0.9-78.7,34.2-79.2,76.1c-0.5,44.7,34.1,78,76.3,78.4C441.7,212.4,474.9,177.9,475.8,134.9z M374,219.5c0,2.7,0,4.9,0,7.1
				c0,48.2,0,96.4,0,144.5c0,4.3-0.8,7.9-4.4,10c-95.1,0-189.9,0-284.8,0c-1.3-2.4-2.5-4.6-3.7-6.9c0-1.6,0-3.2,0-4.9
				c0-66.9,0-133.8,0-200.8c0-1.2-0.1-2.4,0-3.6c0.4-4.7,3.8-8.1,8.5-8.5c1.6-0.1,3.2,0,4.8,0c70.2,0,140.4,0,210.5,0
				c2.4,0,4.8,0,7.6,0c-1-5.6-1.8-10.4-2.8-15.8c-2.4,0-4.6,0-6.8,0c-72.2,0-144.4,0-216.6,0c-0.8,0-1.6,0-2.4,0
				c-12.8,0.2-18.9,9.7-18.9,19.2c0.3,71.2,0.2,142.3,0.1,213.5c0,7.6,0.4,14.7,7.2,21.4c2.8,1.6,7,2.6,11.8,2.6
				c77-0.1,154.1-0.1,231.1-0.1c19.6,0,39.1,0,58.7,0c6.4,0,11-2.6,13.9-8.4c0.6-1.2,1.2-2.5,1.5-3c0-54.9,0-109,0-163.3
				C384.3,221.6,379.6,220.6,374,219.5z"/>
			<linearGradient id="SVGID_2_" gradientUnits="userSpaceOnUse" x1="183.527" y1="311.598" x2="135.0978" y2="227.7162">
				<stop  offset="0" style="stop-color:#4354F6"/>
				<stop  offset="1" style="stop-color:#8144F9"/>
			</linearGradient>
			<path fill="url(#SVGID_2_)" d="M144,262.7c0,14.3,0,28.6,0,43.4c-1.1,0.6-2.3,1.3-3.6,2c0.2,0.2,0.3,0.4,0.5,0.6c-3,0-6,0-9.4,0
				c-0.9-0.8-2-1.9-3.2-3c0-23,0.1-45.8-0.1-68.5c0-4.2,1.4-7,4.7-8c4.2-1.3,8.8,0.2,11.1,3.6c7.2,10.6,14.4,21.3,21.6,31.9
				c2.5,3.7,5,7.4,8.5,10.8c0-14.5,0-29.1,0-43.3c4.6-4.4,9.1-3.6,14.6-1.4c0.4,2.9,1.2,6.4,1.2,9.8c0.1,19.8,0.1,39.5,0,59.3
				c0,2.8-1,5.7-1.7,9c-4.6,0-8.5,0-12.2,0c-10.6-15.8-20.8-31.2-31.1-46.6C144.6,262.5,144.3,262.6,144,262.7z"/>
			<linearGradient id="SVGID_3_" gradientUnits="userSpaceOnUse" x1="243.1738" y1="293.8195" x2="206.3788" y2="230.0885">
				<stop  offset="0" style="stop-color:#4354F6"/>
				<stop  offset="1" style="stop-color:#8144F9"/>
			</linearGradient>
			<path fill="url(#SVGID_3_)" d="M220.4,278.6c0,9.5,0,18.2,0,26.9c-1,1-1.9,2-3,3.2c-4.3-0.1-8.7,1.2-12.6-1.8c0-25.1,0-50,0-75.9
				c2.5-0.6,5.1-1.8,7.7-1.9c9.1-0.2,18.3-0.2,27.4,0c4.1,0.1,8.2,0.9,12.7,1.5c0,3.9,0,7.2,0,11.3c-0.5,0.5-1.6,1.7-2.6,2.8
				c-9.7,0-19.1,0-29.1,0c0,5.9,0,11.6,0,18.2c2.3,0,4.8,0,7.4,0c5.6,0,11.3-0.1,16.9,0c5,0.2,6.7,2.3,6.7,7.8s-1.7,7.6-6.7,7.8
				c-6,0.2-12.1,0-18.1,0C225,278.6,223,278.6,220.4,278.6z"/>
			<linearGradient id="SVGID_4_" gradientUnits="userSpaceOnUse" x1="324.047" y1="296.7794" x2="281.4354" y2="222.974">
				<stop  offset="0" style="stop-color:#4354F6"/>
				<stop  offset="1" style="stop-color:#8144F9"/>
			</linearGradient>
			<path fill="url(#SVGID_4_)" d="M288.2,244.8c-6.3,0-11.7,0-16.9,0c-1.7-1.2-3.1-2.2-4.8-3.3c0.2-3.6-1.1-7.4,1.9-11
				c18.2-2.9,36.7-0.7,55.2-1.6c1.1,1.1,2.1,2,3.2,3c0,3.1,0,6.1,0,9.6c-0.8,0.8-1.8,2-3,3.4c-6,0-12,0-18.6,0c0,2.3,0,4.3,0,6.3
				c0,16.3,0.1,32.7-0.1,49c0,2.8-1.1,5.6-1.7,8.5c-4.7,0-8.4,0-12.2,0c-2.5-2.3-3-5.1-3-8.2c0.1-16.3,0-32.7,0-49
				C288.2,249.4,288.2,247.5,288.2,244.8z"/>
			<linearGradient id="SVGID_5_" gradientUnits="userSpaceOnUse" x1="396.6734" y1="137.0435" x2="369.8295" y2="90.5485">
				<stop  offset="0" style="stop-color:#4354F6"/>
				<stop  offset="1" style="stop-color:#8144F9"/>
			</linearGradient>
			<path fill="url(#SVGID_5_)" d="M372.5,151c-3.6,0.8-6.2,1.4-8.7,1.9c-4.7-6.1-5.9-12.7-6.5-19.4c-1.5-15.2,3.2-28.8,13-40.1
				c7.7-8.9,17.9-14.3,29.5-16.7c3.7-0.7,5.9,1.6,7.2,5.6c-9.6,14.7-12.5,30.6-3.8,47.7c-2,1.7-4.1,3.5-6.5,5.6
				c-5.9-5.9-6.7-14.2-7.9-22.2c-1.2-8.1,1.2-16,3.8-24.3c-12.9,4.8-20.4,14.2-24.1,25.9C364.7,126.7,365.7,138.9,372.5,151z"/>
			<linearGradient id="SVGID_6_" gradientUnits="userSpaceOnUse" x1="423.2475" y1="180.9129" x2="402.0399" y2="144.1803">
				<stop  offset="0" style="stop-color:#4354F6"/>
				<stop  offset="1" style="stop-color:#8144F9"/>
			</linearGradient>
			<path fill="url(#SVGID_6_)" d="M409.8,139.7c10.8,10.4,23.6,14.7,37.9,13c4.8,4.2,4.6,4.1,1.7,9c-3.8,6.5-10.1,10-16.3,13.5
				c-9.9,5.5-21,6.9-31.9,5.2c-12-1.8-22.7-6.9-30.6-17.6c3.4-1.1,6.6-2.1,9.8-3.1c0,0.5-0.1,0.9-0.1,1.4c4.6,2.6,9,5.7,13.9,7.7
				c4.7,1.9,9.9,2.5,14.2,3.5c9.7-1.8,19.4-2,26.7-10.3c-12.8-2.3-23.5-7.1-32.6-16.5C405.2,143.3,407.5,141.5,409.8,139.7z"/>
			<linearGradient id="SVGID_7_" gradientUnits="userSpaceOnUse" x1="389.2089" y1="152.1597" x2="374.8699" y2="127.3239">
				<stop  offset="0" style="stop-color:#4354F6"/>
				<stop  offset="1" style="stop-color:#8144F9"/>
			</linearGradient>
			<path fill="url(#SVGID_7_)" d="M417.3,122.9c0.6,1.4,1.2,2.9,1.7,4.2c-0.4,0.7-0.7,1.3-1.1,1.7c-11.5,12.8-25.2,22.5-40.7,29.6
				c-5,2.3-10.4,3.9-15.7,5c-4.1,0.9-8.4,0.5-11.9-2.7c-4.2-4.3-3.5-9-0.4-13.8c1.7-2.6,3.4-5.2,5.1-7.7c3.3,2.2,3.4,5.2,2.8,7.8
				s-2.1,5-3.3,7.5c2.5,2.9,5.4,1.9,8.3,1.2c10.6-2.4,19.9-7.5,28.8-13.3c5.9-3.9,11.4-8.6,16.9-13.1c1.2-1,1.9-2.5,2.8-3.8
				C412,123.6,413.7,121.9,417.3,122.9z"/>
			<linearGradient id="SVGID_8_" gradientUnits="userSpaceOnUse" x1="428.432" y1="126.2484" x2="415.8799" y2="104.5075">
				<stop  offset="0" style="stop-color:#4354F6"/>
				<stop  offset="1" style="stop-color:#8144F9"/>
			</linearGradient>
			<path fill="url(#SVGID_8_)" d="M415.2,104.9c3.2,1.3,5.3,2.2,7.7,3.2c2.3-0.8,4.8-1.7,8.3-3c-0.6,2.3-1,3.6-1.2,4.8
				c-0.2,1.2-0.2,2.3-0.2,3.4c1.7,2,3.3,3.7,5.5,6.1c-2.9,1-5.2,1.7-8,2.7c-1.1,1.9-2.5,4.2-4.5,7.4c-1.7-3-3-5.2-4.4-7.7
				c-2.4-0.7-5-1.4-8.9-2.4c2.2-1.8,3.7-3,5.7-4.6C415.2,112.2,415.2,109.2,415.2,104.9z"/>
		</g>
	</g>
</g>
</svg>
