<?xml version="1.0" encoding="utf-8"?>
<!-- Generator: Adobe Illustrator 24.0.2, SVG Export Plug-In . SVG Version: 6.00 Build 0)  -->
<svg version="1.2" baseProfile="tiny" id="Layer_1" xmlns="http://www.w3.org/2000/svg" xmlns:xlink="http://www.w3.org/1999/xlink"
	 x="0px" y="0px" viewBox="0 0 500 500" xml:space="preserve">
<g id="HwGuH9.tif">
	<g>
		<g>
			<linearGradient id="SVGID_1_" gradientUnits="userSpaceOnUse" x1="360.8527" y1="443.2157" x2="134.8681" y2="51.799">
				<stop  offset="0" style="stop-color:#4354F6"/>
				<stop  offset="1" style="stop-color:#8144F9"/>
			</linearGradient>
			<path fill="url(#SVGID_1_)" d="M232,21.2c12.5,0,25,0,37.5,0c1.8,0.3,3.5,0.5,5.3,0.8c5.1,0.7,10.2,1.4,15.3,2.2
				c4.6,0.7,9.2,1.5,13.7,2.5c4,0.9,8,2.2,11.9,3.5c5.9,1.9,12,3.4,17.7,5.8c9.8,4.1,19.6,8.4,28.9,13.3c7.6,4,14.6,9,21.7,13.8
				c10.5,7.1,20,15.5,29.1,24.2c4.8,4.6,8.8,9.8,13.3,14.7c6.9,7.4,13,15.3,18.3,23.9c5.6,9,11,18.2,15.6,27.7
				c4.2,8.8,7.6,18,10.6,27.3c3,9.1,5.4,18.5,7.5,27.9c1.4,6.2,1.6,12.7,2.4,19c0.3,2.4,0.9,4.7,1.4,7c0,11.2,0,22.5,0,33.7
				c-0.2,0.4-0.6,0.8-0.7,1.2c-1,8.3-1.9,16.6-2.9,25c-1.3,0-2,0.1-2.7,0c-4.9-0.9-9.8-2-14.7-2.9c-2.2-0.4-2.4-1.1-2-3.7
				c1-7.1,2-14.1,2.6-21.2c0.4-4.3,0.1-4.3-4.3-4.3c-26.5,0-53,0-79.5,0c-0.6,0-1.3,0-1.9,0c-1.9-0.1-2.7,0.8-2.7,2.7
				c0.1,2.9,0,5.7,0,8.6c0,3.2-1,4.4-4.1,4.4c-4.7-0.1-9.4-0.4-14.1-0.8c-0.8-0.1-2-1.3-2-2c-0.2-2.7-0.3-5.5,0.2-8.2
				c0.6-3.9,0.3-4.7-3.6-4.7c-28.4,0-56.7,0-85.1,0c-4,0-4.5,0.6-4.5,4.6c0,22.1,0,44.2,0,66.3c0,1.4,0.3,2.9,0.8,4.3
				c0.3,0.7,1.2,1.7,1.9,1.8c5.3,0.6,10.5,1.2,15.8,1.5c3.8,0.2,4.1,0.2,3.9,4.1c-0.2,3.7-1.1,7.3-1.4,10.9
				c-0.3,4.6-0.1,4.7-4.6,4.5c-5.1-0.1-10.1-0.5-15.5-0.8c-0.3,2.1-0.9,4-0.9,5.9c-0.1,19.2-0.1,38.5,0,57.7
				c0,9.4,0.4,18.9,0.6,28.3c0,2.7-0.3,5.4-0.5,8.1s1.7,4.1,4.4,3.7c3-0.5,6.1-0.7,9.2-1.1c3.3-0.4,6.6-0.8,9.9-1.3
				c3.4-0.5,6.8-1.2,10.2-1.6c1.5-0.2,3.3-0.5,3.8,1.9c0.9,4.3,1.9,8.6,2.9,12.9c0.8,3.4,0.2,4.3-3.5,4.8
				c-5.1,0.8-10.2,1.6-15.3,2.3c-5.3,0.8-10.7,2.1-16.1,2.1c-13.6-0.1-27.3,0.9-41-1.2c-7.5-1.2-15-1.9-22.4-3.8
				c-7.5-2-15.3-3.2-22.7-5.6c-8.9-2.9-17.8-6.3-26.2-10.5c-10.6-5.3-20.8-11.4-31.1-17.4c-4-2.4-7.7-5.3-11.3-8.2
				c-5.1-4.1-10.1-8.3-14.9-12.7c-6-5.4-12.1-10.8-17.4-16.8c-6.1-6.8-11.5-14.1-17-21.4c-3.5-4.7-6.8-9.6-9.8-14.6
				c-3.6-6.1-6.9-12.4-10-18.7c-2.9-5.9-5.7-11.9-8-18.1c-2.7-7.4-4.7-15.1-7-22.7c-0.7-2.4-1.7-4.9-2.1-7.4
				c-1-5.1-1.4-10.2-2.5-15.2c-1.8-7.9-2.4-15.8-2.7-23.8c-0.3-6.7-0.3-13.5,0-20.2c0.3-8.4,0.5-16.9,1.6-25.2
				c1.2-8.9,2.8-18,5.3-26.6c3.8-12.7,7.7-25.4,13.6-37.4c6.7-13.6,13.9-26.8,22.8-39c6.8-9.4,14.1-18.5,22.3-26.6
				c8.4-8.3,17.5-16,26.8-23.3c8.9-7.1,18.5-13.3,28.7-18.4c7-3.5,14-7.2,21.3-10.2c7.7-3.2,15.5-5.8,23.5-8.2
				c5.6-1.7,11.5-2.4,17.1-4c7-2,14.1-3.1,21.3-3.7C226.8,22.3,229.4,21.6,232,21.2z M100,103.7c-4.9,5.6-9.6,10.4-13.7,15.8
				c-5.4,7.1-10.4,14.6-15.4,22c-6,8.9-11,18.5-14.9,28.5c-4.8,12.1-9.7,24.3-11.6,37.4c-1.2,8.7-2.9,17.4-4.3,26.1
				c-0.3,2.1-0.7,4.1-0.7,6.2c0,2.2,1.4,3.3,3.5,3.1c1.6-0.2,3.2-0.4,4.8-0.4c25.3,0,50.7,0,76,0c4.6,0,4.7-0.1,4.7-4.9
				c0-3.4-0.2-6.8,0.1-10.1c0.6-8.2,1.5-16.4,2.2-24.7c0.3-3.3,0.4-6.7,0.9-9.9c1-6.1,2.7-12.2,3.5-18.4c1.4-10.4,4.3-20.5,6.8-30.7
				c0.4-1.6,0.6-3.3,1-5.2C126.5,129.6,112.7,118,100,103.7z M402.3,104.4c-6,5.6-11.4,11-17.3,16c-6.9,5.9-14.1,11.4-22.2,15.7
				c-3.9,2.1-4.5,4.6-2.8,8.9c0.3,0.7,0.8,1.3,0.9,2c2.9,12.7,6.3,25.4,7.7,38.5c0.9,8.4,2.7,16.7,3.6,25.1
				c0.9,9.1,1.2,18.3,1.6,27.4c0.2,4.2,0.1,4.2,4.1,4.2c27,0,54,0,80.9,0c1.1,0,2.1-0.1,3.6-0.2
				C459.2,188.5,438.8,142.9,402.3,104.4z M84,262.6c-13.6,0-27.2,0-40.8,0c-3.5,0-4.2,0.9-3.7,4.2c0.8,5.7,1.4,11.5,2.3,17.2
				c0.9,6,1.8,12.1,3.3,18.1c1.9,7.3,4.1,14.5,6.7,21.6c5.5,15.3,12.5,30,21.7,43.5c5.3,7.9,11.2,15.5,17,23.1
				c2.2,2.9,4.9,5.5,7.4,8.3c1.3,1.4,2.7,1.8,4.2,0.3c3.8-3.9,7.3-8.2,11.4-11.7c8.4-7.3,17.4-14,27.1-19.6c2-1.1,2.7-2.6,2.2-4.6
				c-1.9-7.6-3.9-15.1-5.7-22.7c-1.2-5.1-2.4-10.2-3.2-15.4c-1-6.6-1.6-13.2-2.3-19.8c-0.8-6.6-1.7-13.2-2.2-19.8
				c-0.5-6.2-0.6-12.4-0.8-18.6c-0.1-3.7-0.4-4-4.1-4C110.9,262.6,97.5,262.6,84,262.6z M339.7,148.5c-8.7,2.7-16.6,5.4-24.7,7.6
				c-8.1,2.2-16.3,4.4-24.6,5.8c-8.1,1.4-16.4,1.7-24.6,2.4c-3.7,0.3-4.5,0.6-5.1,4.3c-0.2,1.4,0.6,2.9,0.5,4.3
				c-0.1,3.3-0.6,6.5-0.7,9.7c-0.1,17.5,0,35,0,52.5c0,1-0.1,2,0,3c0.5,3.5,1.1,4.1,4.8,4.1c28.2,0,56.5,0,84.7,0
				c3.4,0,4.4-1.4,4.1-4.8c-0.6-6.1-1-12.3-1.5-18.4c-0.3-3.8-0.3-7.7-0.8-11.5c-1.1-8.1-2.2-16.3-3.7-24.4
				c-1.4-7.7-3.3-15.3-5-22.9c-0.6-2.7-1-5.5-1.8-8.2C341,150.7,340.1,149.4,339.7,148.5z M194.3,242.2c14.1,0,28.2,0,42.3,0
				c4.3,0,4.3,0,4.3-4.4c0-22.9,0-45.7,0-68.6c0-0.6,0-1.3,0-1.9c-0.1-1.9-1.1-2.9-3.1-3c-4.6-0.3-9.1-0.5-13.7-0.8
				c-0.9,0-1.8,0.1-2.6-0.1c-6.7-1.2-13.5-2.2-20.2-3.7c-7.4-1.7-14.7-3.6-22-5.7c-5-1.5-9.9-3.6-14.8-5.4c-1.7-0.6-2.6-0.5-3.1,1.5
				c-1.3,5.6-3.2,11-4.3,16.6c-1.5,7.4-2.7,14.9-3.9,22.4c-1,6.4-2.1,12.8-2.9,19.3c-0.5,3.8-0.5,7.6-0.8,11.5
				c-0.5,6-1.1,12-1.4,18.1c-0.2,4.1,0,4.1,4.1,4.1C166.3,242.2,180.3,242.2,194.3,242.2z M194.7,262.6c-14.1,0-28.2,0-42.3,0
				c-4.2,0-4.4,0-4.2,4.1c0.3,6,1.2,12,1.4,18.1c0.2,9.5,1.7,18.9,3.1,28.3c0.8,5.6,1.7,11.1,2.9,16.6c1.7,8,3.6,16,5.4,24
				c0.6,2.5,1.2,2.9,3.9,2c4.8-1.6,9.5-3.2,14.2-4.8c4.4-1.4,8.7-3,13.2-4c7.5-1.6,15.2-2.5,22.7-4.4c7.2-1.9,14.7-1.5,21.9-2.7
				c4.1-0.7,4.2-0.2,4.2-4.6c0-22.7,0-45.5,0-68.2c0-4.4,0-4.4-4.3-4.4C222.7,262.6,208.7,262.6,194.7,262.6z M264.6,144.5
				c3.8-0.2,7.7,0,11.4-0.6c8.7-1.5,17.2-3.4,25.9-5.1c10.3-1.9,19.9-5.7,29.6-9.3c1.4-0.5,1.9-1.5,1.5-2.9c-0.3-1.2-0.6-2.4-1-3.5
				c-4.4-9.9-8.4-20-13.8-29.5c-7.2-12.6-15.4-24.3-26-34.3c-7.7-7.3-16.3-12.8-26.3-16.3c-3.8-1.3-4.7-0.7-5.3,3.3
				c-0.1,0.7,0,1.5,0,2.2c0,28.2,0,56.4,0,84.6c0,2.5,0,5,0.2,7.5C260.9,143.9,261.8,144.8,264.6,144.5z M167.9,375.9
				c1.8,4.5,3.4,8.4,5,12.4c4,9.8,8.5,19.5,14.2,28.5c5.9,9.4,12.1,18.6,20,26.3c3.5,3.4,7.6,6.1,11.4,9.2c5.9,4.9,12.8,7.7,19.9,10
				c1.5,0.5,2.4-0.1,2.6-1.7c0.1-1,0-2,0-3c0-30.9,0-61.9,0-92.8c0-0.7,0-1.5,0-2.2c0.1-2-0.9-2.8-2.7-2.6c-2.2,0.2-4.4,0.8-6.6,0.7
				c-6.3-0.2-12.5,1.2-18.7,2.2c-9,1.4-17.8,3.3-26.4,6.2C180.4,371.2,174.3,373.6,167.9,375.9z M241,144c0-33.3,0-65.9,0-98.5
				c0-0.5,0-1,0-1.5c-0.2-1.6-1.1-2.1-2.6-1.6c-5.7,1.8-11.4,3.9-16.3,7.3c-8.7,5.9-16.4,12.8-23,21.2c-8.4,10.6-15.1,22-21,34
				c-3.6,7.5-6.6,15.3-10,23.2c1.2,0.7,2.1,1.4,3,1.8c9.4,4.3,19.2,7.3,29.2,9.5c7.4,1.7,14.9,2.8,22.4,3.9c4.5,0.7,9,1.1,13.6,1.5
				C237.7,144.8,239.3,144.3,241,144z M115.3,414.3c12.2,13.3,64.2,41.1,73.7,39.6c-4.2-5.5-8.8-10.8-12.6-16.6
				c-5.5-8.4-10.8-16.9-15.5-25.7c-3.8-7.2-6.4-15-9.6-22.5c-1.4-3.3-2.5-3.7-5.5-1.7c-3.5,2.4-7.2,4.7-10.5,7.5
				c-6.5,5.7-12.8,11.7-19.1,17.6C115.8,413,115.7,413.6,115.3,414.3z M189,51c-0.2-0.3-0.4-0.5-0.5-0.8
				c-27,8.6-51.6,21.7-73.5,40.2c1.1,1.3,1.9,2.5,2.9,3.6c8.5,9.3,18.4,16.8,28.8,23.9c0.7,0.5,2.4,0.3,3.1-0.2
				c0.9-0.6,1.4-2,1.9-3.1c5-10.7,9.6-21.7,15-32.2c3.6-6.9,8.3-13.3,12.8-19.7C182.4,58.6,185.8,54.9,189,51z M352,118.5
				c0.9,0,1.1,0,1.2,0c12.3-7,23-15.9,32.4-26.5c1.5-1.7,0.6-2.8-0.7-3.7c-12.4-9.1-25-18-38.8-24.9c-10-5-20.3-8.8-30.6-12.9
				c-0.7-0.3-1.5,0.1-3.1,0.2C330.5,71,342.7,94,352,118.5z"/>
			<linearGradient id="SVGID_2_" gradientUnits="userSpaceOnUse" x1="431.3365" y1="465.3762" x2="338.8542" y2="305.1922">
				<stop  offset="0" style="stop-color:#4354F6"/>
				<stop  offset="1" style="stop-color:#8144F9"/>
			</linearGradient>
			<path fill="url(#SVGID_2_)" d="M477.2,384.8c0.7,51.6-40.8,94-95.1,92.8c-24.8-0.6-46.2-10.4-63.5-28.4
				c-17.8-18.6-26.4-41.1-25.8-66.7c0.6-25,10.4-46.7,28.4-63.9c19.2-18.3,42.5-26.8,69.3-25.4C435.3,295.4,477.4,333,477.2,384.8z
				 M382.2,456.9c7-0.7,12.2-1.3,17.5-1.8c14.1-1.3,25.5-8.3,35.5-17.6c7.5-7,13.1-15.4,16.9-25.1c3.1-8,5.1-16.1,5.5-24.6
				c0.5-9-0.9-17.9-4.1-26.3c-1.6-4.2-3.5-8.3-5.6-12.3c-4-7.6-9.7-13.9-16.3-19.3c-3.9-3.2-7.9-6.4-12.3-8.7
				c-5-2.5-10.4-4.4-15.8-5.7c-5.4-1.4-11.1-2.3-16.7-2.6c-8.7-0.3-17.2,1.2-25.6,4.2c-9.4,3.4-18,7.9-25.1,14.9
				c-6.2,6-11.5,12.7-15.5,20.5c-4.2,8.3-6.9,17-7.6,26.2c-0.5,7.1-0.3,14.3,1.3,21.4c2.2,10.4,6.4,19.7,12.7,28.2
				c4.4,6,9.9,11,15.6,15.6c6.6,5.3,14.4,8.5,22.4,10.8C371.1,456.4,377.6,456.4,382.2,456.9z"/>
			<linearGradient id="SVGID_3_" gradientUnits="userSpaceOnUse" x1="384.2394" y1="400.7559" x2="365.7295" y2="368.6957">
				<stop  offset="0" style="stop-color:#4354F6"/>
				<stop  offset="1" style="stop-color:#8144F9"/>
			</linearGradient>
			<path fill="url(#SVGID_3_)" d="M370.3,374.4c0,2.3,0,4.4,0,7.1c1.7,0,3.4,0,5.1,0c1.9,0,3.7,0,5.6,0.1c1.8,0.1,3,1,2.9,2.8
				c0,1.7-1.2,2.7-3,2.7c-3.5,0-6.9,0-10.6,0c0,2.9,0,5.3,0,8.2c3.2,0,6.1,0,9.1,0c1,0,2,0,3,0c2.1,0,3.5,0.9,3.5,3
				s-1.6,2.6-3.4,2.6c-3.2,0-6.5,0-9.7,0c-1.9,0-3.7,0-5.6,0c-2.3-0.1-3.4-1.2-3.3-3.5c0.1-8.5,0.1-17,0-25.5c0-2.2,1-3.3,3.1-3.3
				c5.4-0.1,10.7-0.1,16.1,0c1.7,0,2.9,1,2.9,2.8s-1.2,2.7-2.9,2.8c-3.2,0.1-6.5,0-9.7,0.1C372.4,374.2,371.5,374.3,370.3,374.4z"/>
			<linearGradient id="SVGID_4_" gradientUnits="userSpaceOnUse" x1="351.2917" y1="399.3516" x2="334.5465" y2="370.3481">
				<stop  offset="0" style="stop-color:#4354F6"/>
				<stop  offset="1" style="stop-color:#8144F9"/>
			</linearGradient>
			<path fill="url(#SVGID_4_)" d="M342.7,401.8c-3.9-0.5-7.3-1.3-10.3-3.6c-1.5-1.2-2.4-2.6-1.3-4.5c1.2-2,2.9-1.5,4.5-0.5
				c3.1,2.1,6.5,3.4,10.2,2c1.4-0.5,3.2-1.9,3.6-3.2c0.6-2.1-1.5-3.3-3.3-3.8c-1.8-0.6-3.6-0.9-5.5-1.2c-6.5-1.2-10-4.6-9.7-9.9
				c0.3-5.1,4.3-8.5,10.6-9c4.1-0.3,8,0.3,11.4,2.7c1.4,1,2.5,2.2,1.4,4.1s-2.6,1.8-4.4,0.9c-3-1.6-6.1-2.9-9.6-1.7
				c-1.6,0.5-3.1,1.2-3.2,3.2c-0.1,2.2,1.4,3.2,3.1,3.7c3.2,0.9,6.6,1.4,9.8,2.5c5.6,2,7.6,8.4,4.2,13.1c-0.9,1.3-2.2,2.5-3.6,3.1
				C348,400.6,345.3,401.1,342.7,401.8z"/>
			<linearGradient id="SVGID_5_" gradientUnits="userSpaceOnUse" x1="408.5974" y1="404.0528" x2="390.1962" y2="372.1809">
				<stop  offset="0" style="stop-color:#4354F6"/>
				<stop  offset="1" style="stop-color:#8144F9"/>
			</linearGradient>
			<path fill="url(#SVGID_5_)" d="M400.6,395.3c4.3,0,8.1,0,11.8,0c2,0,3.6,0.5,3.6,2.8c0,2.2-1.6,2.9-3.6,2.9
				c-4.7,0-9.5,0.1-14.2,0c-3-0.1-3.9-0.8-4-3.7c-0.1-8.4-0.1-16.7,0-25.1c0-2.5,1.3-3.7,3.4-3.5c2.4,0.2,3,1.7,3,3.9
				c0,6.1,0,12.2,0,18.3C400.6,392.1,400.6,393.4,400.6,395.3z"/>
			<linearGradient id="SVGID_6_" gradientUnits="userSpaceOnUse" x1="438.5588" y1="404.2278" x2="420.1301" y2="372.3085">
				<stop  offset="0" style="stop-color:#4354F6"/>
				<stop  offset="1" style="stop-color:#8144F9"/>
			</linearGradient>
			<path fill="url(#SVGID_6_)" d="M430.6,395.3c3.5,0,6.6,0,9.7,0c1,0,2.1-0.3,3,0.1c1.1,0.5,2.4,1.4,2.7,2.5c0.5,1.7-0.8,3-2.5,3
				c-5.5,0.1-11,0.1-16.5,0c-2.5-0.1-2.8-2.1-2.8-4.1c0-5.2,0-10.5,0-15.7c0-2.9,0-5.7,0-8.6c0-2.1,0.7-3.7,3.1-3.8
				c2.2-0.1,3.2,1.1,3.2,4C430.6,379.9,430.6,387.3,430.6,395.3z"/>
		</g>
	</g>
</g>
</svg>
