<?xml version="1.0" encoding="utf-8"?>
<!-- Generator: Adobe Illustrator 24.0.2, SVG Export Plug-In . SVG Version: 6.00 Build 0)  -->
<svg version="1.2" baseProfile="tiny" id="Layer_1" xmlns="http://www.w3.org/2000/svg" xmlns:xlink="http://www.w3.org/1999/xlink"
	 x="0px" y="0px" viewBox="0 0 500 500" xml:space="preserve">
<linearGradient id="SVGID_1_" gradientUnits="userSpaceOnUse" x1="15" y1="250" x2="485" y2="250">
	<stop  offset="0" style="stop-color:#4354F6"/>
	<stop  offset="0.7205" style="stop-color:#7F45F9"/>
</linearGradient>
<circle fill="url(#SVGID_1_)" cx="250" cy="250" r="235"/>
<g>
	<path fill="#FFFFFF" d="M231.2,118.1c-12.2,5.1-22.6,11.4-32.2,19.2c-24.2,20-39.7,45.3-45.9,76.1c-6,30-1.5,58.7,12.7,85.8
		c3.1,5.9,2.7,7.1-3.5,9.4c-5.2,1.8-10.3,3.6-15.5,5.4c-3.4,1.2-5.6,0.5-7.5-3.1c-8.5-16.4-14.1-33.8-16.2-52
		c-4.9-42.6,5-81.7,31-116c23.1-30.6,53.7-50.5,91.2-59.3c5.1-1.2,10.8-2.4,15.8-1.5c10.6,1.8,16.5,14.8,9.5,24.9
		c-10.1,14.6-17.1,30.6-20.6,48.2c-6,29.6-2.1,57.9,11.2,84.9c2.4,4.9,2.2,5.8-2,9.3c-4.1,3.3-8.2,6.6-12.2,9.9
		c-4.6,3.9-6.4,3.6-9.3-1.7c-6.5-12.3-11.5-25.1-14.8-38.5c-4-16.2-5.1-32.6-4.1-49.1c1.1-16.9,4.9-33.3,11.6-48.9
		C230.5,120.4,230.7,119.7,231.2,118.1z"/>
	<path fill="#FFFFFF" d="M286.5,398.1c-51-0.9-89.7-17.5-121.2-50.6c-3.1-3.3-2.9-4.8,1.4-6.6c6.5-2.7,13.1-5.1,19.6-7.8
		c3.2-1.3,5.5,0,7.8,2.1c12.1,11.1,26,19.5,41.3,25.3c10.6,4,21.6,6.6,33,7.7c33.1,3.2,62.9-5.1,89.7-24.5c1-0.7,1.6-1.8,2.5-2.7
		c-1.1-0.5-2.2-1.2-3.3-1.4c-31.2-4.3-59-16.3-82.8-37c-3.7-3.2-7.1-6.6-10.7-9.9c-2.5-2.4-2-4.5,0.6-6.5c5-4,10-8,15-12.1
		c2.3-1.9,4.3-1.9,6.5,0.2c18.5,17.9,40.3,29.8,65.6,34.9c11.8,2.4,23.7,3.8,35.8,2.3c6.4-0.8,13-0.8,17.9,4.7
		c6.1,6.8,5.9,15.4-0.6,23.1c-23.1,27.7-52,46.5-87.3,54.4C305.3,396.3,293.1,397.1,286.5,398.1z"/>
	<path fill="#FFFFFF" d="M125,345.8c-8-0.2-15.5-1.4-22.3-5.8c-11.4-7.4-15.4-22.1-9.8-36.7c4.8-12.4,13.1-22.6,21.9-32.4
		c2.1-2.4,3.9-1.9,4.8,1c1.9,6.6,3.8,13.2,5.2,20c0.3,1.6-1.1,3.6-2,5.3c-2.7,5-6.2,9.8-8.3,15.1c-2.7,6.8,0.1,9.9,7.4,10.2
		c11.3,0.5,22-2.5,32.5-6c32.8-11.1,62-28.8,89.7-49.2c14.2-10.5,27.5-22,39.6-34.8c2.7-2.9,5.3-5.9,7.7-9c1.6-2.1,3.3-3,6-2.8
		c7.4,0.5,13,5.3,14.1,12.7c0.1,0.9-0.5,2.3-1.2,3c-9.5,10-18.5,20.6-28.6,29.8c-20.7,18.8-43.6,34.8-68,48.5
		c-22.1,12.4-44.9,23.3-70,28.6C137.5,344.3,131.2,344.9,125,345.8z"/>
	<path fill="#FFFFFF" d="M347,170.7c-1.2,7.2-2.3,13.4-3.1,19.7c-0.2,1.4,0.5,3.3,1.4,4.3c4,4.3,8.4,8.3,12.4,12.7
		c1,1.1,1.9,3.5,1.5,4.7c-0.5,1.3-2.7,2.3-4.2,2.6c-5.8,1-11.6,1.5-17.4,2.6c-1.5,0.3-3.1,1.9-3.9,3.4c-2.6,4.7-4.7,9.6-7.3,14.3
		c-0.9,1.7-2.9,4.1-4.1,3.9c-1.7-0.3-3.6-2.3-4.6-4c-2-3.3-4-6.9-5.2-10.6c-1.8-5.5-5.5-7.6-11-8c-4.3-0.3-8.6-0.9-12.8-1.7
		c-1.4-0.3-3.3-1.6-3.7-2.8c-0.4-1.3,0.3-3.4,1.3-4.5c3.8-4,7.7-8,11.9-11.5c2.4-2,2.7-4.3,2.3-6.9c-0.9-5.2-2.1-10.5-2.8-15.7
		c-0.2-1.6,0.3-3.9,1.4-4.8c1.1-0.8,3.6-0.8,5-0.2c5.1,2.4,10,5,14.9,7.8c2.2,1.2,4,1.3,6.2,0c4.9-2.7,9.9-5.3,14.9-7.8
		C344,166.4,347,168,347,170.7z"/>
</g>
</svg>
