<?xml version="1.0" encoding="utf-8"?>
<!-- Generator: Adobe Illustrator 24.0.2, SVG Export Plug-In . SVG Version: 6.00 Build 0)  -->
<svg version="1.2" baseProfile="tiny" id="Layer_1" xmlns="http://www.w3.org/2000/svg" xmlns:xlink="http://www.w3.org/1999/xlink"
	 x="0px" y="0px" viewBox="0 0 500 500" xml:space="preserve">
<g id="cMv2oa_1_">
	<g>
		<linearGradient id="SVGID_1_" gradientUnits="userSpaceOnUse" x1="448.059" y1="506.7166" x2="310.0344" y2="267.6509">
			<stop  offset="0" style="stop-color:#4354F6"/>
			<stop  offset="1" style="stop-color:#8144F9"/>
		</linearGradient>
		<path fill="url(#SVGID_1_)" d="M434.8,418.4c14,14,27.9,27.8,41.7,41.5c2.1,2.1,4.3,4.1,6.2,6.3c5.7,6.6,5.6,14.5,0.1,19.9
			c-5.7,5.5-13.5,5.6-19.9-0.6c-13.8-13.4-27.7-26.8-40.8-41c-6-6.5-10.3-7.4-18.4-3.1c-37.5,19.8-83.9,11.9-114-18.3
			c-30.4-30.5-37.7-76.9-18.1-115c19.8-38.5,62.4-59.8,104.8-52.4c41.7,7.2,74.4,40.9,80.6,83C461.3,366.7,455.6,387.6,434.8,418.4z
			 M430.4,354.1c0.3-39.2-31-71.3-69.8-71.7c-39.5-0.4-71.5,31-71.9,70.5c-0.4,39,31,71.3,69.8,71.7
			C398,425.1,430.1,393.5,430.4,354.1z"/>
		<linearGradient id="SVGID_2_" gradientUnits="userSpaceOnUse" x1="186.575" y1="452.0435" x2="72.6485" y2="254.7169">
			<stop  offset="0" style="stop-color:#4354F6"/>
			<stop  offset="1" style="stop-color:#8144F9"/>
		</linearGradient>
		<path fill="url(#SVGID_2_)" d="M227.8,354.1c0,13.3,0.2,26.7,0,40c-0.6,33.7-24.2,57.6-57.9,58.2c-27,0.4-54,0.5-81,0
			c-33.5-0.6-57.4-25.2-57.6-58.6c-0.1-26.7-0.1-53.4,0-80.1c0.1-33.5,23.7-58.3,57.1-59.1c27.6-0.6,55.2-0.7,82.8,0
			c32.8,0.8,56,24.9,56.6,57.6C228,326.2,227.8,340.2,227.8,354.1z M59.1,353.8c0,13.3-0.2,26.7,0,40c0.3,18.6,12.3,30.7,30.7,30.8
			c26.4,0.2,52.7,0.2,79.1,0c18.4-0.1,31-12.3,31.1-30.5c0.3-27,0.2-53.9,0-80.9c-0.2-18.4-12.5-30.6-30.9-30.7
			c-26.4-0.2-52.7-0.2-79.1,0c-18.6,0.1-30.6,11.9-31,30.5C58.9,326.5,59.1,340.2,59.1,353.8z"/>
		<linearGradient id="SVGID_3_" gradientUnits="userSpaceOnUse" x1="186.4038" y1="225.5233" x2="72.5693" y2="28.3561">
			<stop  offset="0" style="stop-color:#4354F6"/>
			<stop  offset="1" style="stop-color:#8144F9"/>
		</linearGradient>
		<path fill="url(#SVGID_3_)" d="M227.8,127.4c0,13.3,0.2,26.7,0,40c-0.6,34.2-24.5,58-58.7,58.2c-26.4,0.2-52.8,0.2-79.2,0
			c-34.4-0.2-58.5-24.7-58.7-59.2c-0.1-26.4-0.1-52.8,0-79.2C31.3,52.6,56,28.1,90.8,27.9c25.8-0.1,51.6-0.1,77.4,0
			c34.9,0.2,59.1,24.4,59.5,59.4C227.9,100.7,227.8,114.1,227.8,127.4z M59.1,126.5c0,13.3-0.1,26.7,0,40
			c0.2,19.3,11.8,31.3,30.9,31.6c26.4,0.3,52.7,0.3,79.1,0c18.9-0.2,30.9-12.6,31-31.6c0.2-26.4,0.2-52.7,0-79.1
			C200,68.3,188,56.1,169.1,56c-26.4-0.2-52.7-0.1-79.1,0c-18.7,0.1-30.5,11.8-30.8,30.5C58.9,99.9,59.1,113.2,59.1,126.5z"/>
		<linearGradient id="SVGID_4_" gradientUnits="userSpaceOnUse" x1="410.3207" y1="225.5191" x2="296.4325" y2="28.259">
			<stop  offset="0" style="stop-color:#4354F6"/>
			<stop  offset="1" style="stop-color:#8144F9"/>
		</linearGradient>
		<path fill="url(#SVGID_4_)" d="M451.6,127c0,14.2,0.2,28.5,0,42.7c-0.6,30.7-24.8,55.3-55.6,55.8c-28.5,0.4-57,0.5-85.4,0
			c-30.4-0.5-54.6-24.7-55.2-55.1c-0.5-28.8-0.5-57.5,0-86.3c0.5-30.8,24.6-55.3,55.5-56c28.5-0.6,57-0.7,85.4,0
			c31.2,0.8,55,25.8,55.4,57.1C451.7,99.2,451.6,113.1,451.6,127z M353.8,56c-13.3,0-26.7-0.1-40,0c-18.1,0.2-30.7,11.8-30.9,29.6
			c-0.4,27.5-0.4,55.1,0,82.7c0.3,17,12.3,29.3,29.2,29.7c27.5,0.5,55.1,0.5,82.7,0c16.7-0.3,28.7-12.1,29-28.8
			c0.6-28.1,0.6-56.3,0-84.4c-0.4-17.2-12.7-28.4-29.9-28.7C380.4,55.8,367.1,56,353.8,56z"/>
	</g>
</g>
</svg>
