<?xml version="1.0" encoding="utf-8"?>
<!-- Generator: Adobe Illustrator 24.0.2, SVG Export Plug-In . SVG Version: 6.00 Build 0)  -->
<svg version="1.2" baseProfile="tiny" id="Layer_1" xmlns="http://www.w3.org/2000/svg" xmlns:xlink="http://www.w3.org/1999/xlink"
	 x="0px" y="0px" viewBox="0 0 500 500" xml:space="preserve">
<g id="Y4aCVQ.tif">
	<g>
		<linearGradient id="SVGID_1_" gradientUnits="userSpaceOnUse" x1="250" y1="473.611" x2="250" y2="24.8677">
			<stop  offset="0" style="stop-color:#4354F6"/>
			<stop  offset="1" style="stop-color:#8144F9"/>
		</linearGradient>
		<path fill="url(#SVGID_1_)" d="M383.5,157.1c-13,22.5-16.3,47.3-17.3,73.6c-1.4-1.7-2.2-2.7-3.1-3.8
			c-20.7-26.6-39.7-54.4-54.8-84.9c-11-22.1-19.7-45.2-23.8-69.8c-2.4-14.1-3.1-28.4-1.5-42.6c0.1-1.3,0.3-2.6,0.5-4.7
			c-5.4,2.7-10.3,4.8-14.9,7.4C244.4,46,224.8,65,208.4,87.6c-20.5,28.2-34.3,59.8-43.9,93.6c-0.8,2.8-1.6,5.6-2.5,8.9
			c-5.2-4.9-8.8-10.5-11.2-16.8c-4.8-12.6-5.8-25.7-3.8-39c1.2-8.2,3.5-16.3,5.3-24.3c-2.2,2-4.8,4.2-7.2,6.6
			c-34.1,35.3-59.8,76.1-74.6,123.7c-8.7,28-11.7,56.6-7.1,85.8c4.8,30.4,17.7,57,36.5,80.7c17.6,22.1,38.9,40,62.1,55.5
			c6,4,12.1,7.7,18.4,11.4c-21.4-46.3-24.4-94.1-11.9-143.1c12.4-48.9,37.4-89.2,77.1-119.4c-3.3,46,7.3,87.3,35.3,123.4
			c-3.4-22.9-0.4-44.4,12.1-64.2c0.4,1.4,0.7,2.7,1.1,4.1c6.2,25.3,16.5,48.7,30.8,70.2c8,12,14.9,24.6,19.1,38.7
			c6.2,20.6,5.3,41.2-0.7,61.6c-2.6,8.8-6.2,17.2-9.4,25.8c-0.3,0.9-0.7,1.7-0.7,3c2.6-1.5,5.2-3.1,7.7-4.6
			c19.5-11.9,38.3-25,54.9-41.1c13.9-13.4,25.6-28.4,33.4-46.5c7-16.3,9.7-33.4,9.3-51.2c-0.7-27.7-8.7-53.3-20.3-78
			c-8.1-17.2-16.2-34.5-23.8-52c-5.8-13.5-9.5-27.7-10.6-42.5C383.9,157.5,383.7,157.4,383.5,157.1z"/>
	</g>
</g>
</svg>
