<?xml version="1.0" encoding="utf-8"?>
<!-- Generator: Adobe Illustrator 24.0.2, SVG Export Plug-In . SVG Version: 6.00 Build 0)  -->
<svg version="1.2" baseProfile="tiny" id="Layer_1" xmlns="http://www.w3.org/2000/svg" xmlns:xlink="http://www.w3.org/1999/xlink"
	 x="0px" y="0px" viewBox="0 0 500 500" xml:space="preserve">
<g id="nkO1XM.tif">
	<g>
		<linearGradient id="SVGID_1_" gradientUnits="userSpaceOnUse" x1="345.7193" y1="425.0445" x2="154.2072" y2="93.3359">
			<stop  offset="0" style="stop-color:#4354F6"/>
			<stop  offset="1" style="stop-color:#8144F9"/>
		</linearGradient>
		<path fill="url(#SVGID_1_)" d="M333.9,412.6c-5,0-10,0-15.1,0c-0.4-0.1-0.8-0.1-1.2-0.2c-5.6-0.6-11.1-0.9-16.6-1.8
			c-17.7-2.9-34.3-8.8-50-17.6c-0.5-0.3-1.3-0.2-1.8,0c-5.5,2.6-10.8,5.5-16.4,7.9c-13.3,5.7-27.2,9.2-41.6,10.8
			c-3.3,0.4-6.5,0.6-9.8,0.9c-5,0-10,0-15.1,0c-2.5-0.2-4.9-0.4-7.4-0.7c-13.2-1.2-26.1-4.2-38.5-8.8
			C62.2,381.3,23,327.3,20.5,265.3c-0.7-17,1.4-33.6,6.3-49.9C44.5,155.7,97.1,112.3,159,106.5c13.5-1.3,26.9-0.9,40.2,1.4
			c17.7,2.9,34.3,8.8,49.9,17.6c0.5,0.3,1.4,0.3,1.8,0c20.1-11.3,41.7-17.7,64.8-19.3c16.6-1.1,33,0.2,49.1,4.6
			c42.6,11.5,74.6,36.7,96.2,75.1c8.8,15.7,14.4,32.6,17,50.5c0.7,5.1,1.1,10.3,1.7,15.4c0,5,0,10,0,15.1c-0.1,0.4-0.2,0.9-0.2,1.3
			c-0.4,8.3-1.5,16.6-3.5,24.7c-12.5,51-42.9,87-90.9,108.1c-13.2,5.8-27.2,9.2-41.6,10.8C340.4,412,337.1,412.3,333.9,412.6z
			 M284,366.2c0.3,0.2,0.5,0.3,0.7,0.4c10.9,5.1,22.4,7.2,34.3,7.4c7.3,0.1,14.6-0.1,21.9-0.5c5.6-0.3,11.1-1,16.5-2.9
			c18.1-6.3,35.1-14.5,48.7-28.5c5.3-5.4,10.8-10.7,14.9-17.1c3.9-6.2,7.4-12.8,10.7-19.4c6.3-12.4,9.5-25.7,9.5-39.6
			c0-7.1-0.1-14.2-0.5-21.3c-0.4-5.6-1-11.1-2.9-16.4c-6.3-18.1-14.6-35.1-28.6-48.8c-5.3-5.2-10.5-10.5-16.7-14.6
			c-8.1-5.5-16.7-10-25.8-13.5c-4.8-1.8-9.6-3.9-14.6-4.8c-11.9-2.3-23.9-2.6-36-1.9c-10,0.6-19.7,2.2-28.9,6.2
			c-1.1,0.5-2.2,0.9-3.3,1.4c28.3,30.2,43.3,65.7,43.3,107.1C327.2,300.6,312.2,336.1,284,366.2z M216.1,152.2
			c-0.3-0.2-0.5-0.3-0.7-0.4c-10.9-5.1-22.4-7.2-34.3-7.4c-7.1-0.1-14.2,0.1-21.3,0.5c-6.5,0.4-12.9,1.4-19.2,3.6
			c-17.3,6.3-33.5,14.4-46.6,27.8c-5.5,5.7-11.3,11.2-15.5,18c-3.7,6-6.9,12.2-10.1,18.5c-6.3,12.6-9.5,25.9-9.5,40
			c0,7,0.1,14,0.6,20.9c0.4,5.5,1,11,2.9,16.3c6.3,18.3,14.6,35.3,28.6,49c5.6,5.4,11.1,10.9,17.6,15.2c6.8,4.5,14.1,8.1,21.5,11.5
			c10.1,4.5,20.6,7.6,31.7,8c7.6,0.2,15.2,0.3,22.8,0c8.4-0.3,16.8-1.5,24.7-4.7c2.3-0.9,4.6-1.8,7-2.7
			c-28.3-30.2-43.3-65.7-43.3-107C172.9,217.9,187.9,182.4,216.1,152.2z M288.8,256.9c-0.1-2.6-0.3-7.5-0.8-12.5
			c-0.4-4.4-0.8-8.8-2-13c-3.9-13.6-9.9-26.3-17.7-38.1c-4.3-6.5-9.9-12.1-15.5-17.5c-0.9-0.9-1.9-2.3-2.8-2.3c-1,0-1.9,1.5-2.8,2.3
			c-5.8,5.7-11.5,11.5-16,18.3c-4.8,7.2-8.7,14.9-12,22.9c-3.4,8.1-6.2,16.3-6.9,25.2c-0.8,9.2-1.1,18.3-0.5,27.5s2.1,18.1,5.4,26.8
			c7.1,18.5,17.2,35,32.2,48.2c0.7,0.6,1,0.6,1.6,0c0.9-0.9,1.8-1.8,2.7-2.7c5.4-5.4,10.8-10.8,15-17.2c5.1-7.6,9.3-15.7,12.7-24.2
			c2-5.1,4.1-10.2,5.3-15.5C288.4,276.7,288.8,268,288.8,256.9z"/>
	</g>
</g>
</svg>
