<?xml version="1.0" encoding="utf-8"?>
<!-- Generator: Adobe Illustrator 24.0.2, SVG Export Plug-In . SVG Version: 6.00 Build 0)  -->
<svg version="1.2" baseProfile="tiny" id="Layer_1" xmlns="http://www.w3.org/2000/svg" xmlns:xlink="http://www.w3.org/1999/xlink"
	 x="0px" y="0px" viewBox="0 0 500 500" xml:space="preserve">
<g id="f6B3i2.tif">
	<g>
		<linearGradient id="SVGID_1_" gradientUnits="userSpaceOnUse" x1="379.1294" y1="480.8358" x2="142.3261" y2="70.6805">
			<stop  offset="0" style="stop-color:#4354F6"/>
			<stop  offset="1" style="stop-color:#8144F9"/>
		</linearGradient>
		<path fill="url(#SVGID_1_)" d="M86,439c4.3-25.5,7.2-57,15.2-87c7.6-28.6,1.8-48.2-21.4-67c-23.9-19.4-44.3-43.1-65.9-65.3
			c-16.6-17.1-9.3-44.7,13.9-49.5c32.1-6.6,64.6-10.8,96.9-16c10.1-1.6,20.4-2.2,30.1-4.9c4.1-1.1,8.2-5.8,10.3-9.9
			c17.4-34.2,34.6-68.6,51.4-103.2c6-12.3,14.6-19.9,28.6-20.4c14.9-0.6,24.9,6.5,31.4,19.7c17.3,35.1,35,70.1,52.4,105.3
			c2.7,5.4,5.6,8.4,12.3,9.3c39.2,5.5,78.3,11.6,117.3,18c20.2,3.3,27.9,11.4,29.6,28.4c1,9.7-2.2,17.5-9.1,24.4
			c-28.7,28.4-57.1,57.1-86,85.3c-4.9,4.8-6.3,9.3-5.2,15.9c6.6,38.2,12.7,76.6,19.2,114.8c2.2,13.1,0.8,25.2-10.6,33.6
			c-11.4,8.5-24.1,8.4-36.4,2.2c-34.9-17.8-69.7-35.8-104.3-54.2c-6.4-3.4-11.1-3.5-17.6-0.1c-35.7,18.7-71.4,37.5-107.7,55
			C107.2,484.6,85.2,469.6,86,439z"/>
	</g>
</g>
</svg>
